<mxfile host="app.diagrams.net" modified="2023-01-10T16:09:02.783Z" agent="5.0 (Windows NT 10.0; Win64; x64) AppleWebKit/537.36 (KHTML, like Gecko) Chrome/108.0.0.0 Safari/537.36" version="20.8.3" etag="qJQ-EbbGd4S9wBDAcN5q" type="github">
  <diagram id="u_gMx8VxJM-kXVZ5UL6-" name="Page-1">
    <mxGraphModel dx="3585" dy="1990" grid="1" gridSize="10" guides="1" tooltips="1" connect="1" arrows="1" fold="1" page="1" pageScale="1" pageWidth="3300" pageHeight="4681" math="0" shadow="0">
      <root>
        <mxCell id="0" />
        <mxCell id="1" parent="0" />
      </root>
    </mxGraphModel>
  </diagram>
</mxfile>
